<?xml version="1.0" encoding="UTF-8" standalone="no"?>
<!-- Created with Inkscape (http://www.inkscape.org/) -->

<svg
   width="300"
   height="100"
   viewBox="0 0 79.374998 26.458333"
   version="1.1"
   id="svg5"
   xml:space="preserve"
   inkscape:export-filename="light.svg"
   inkscape:export-xdpi="300"
   inkscape:export-ydpi="300"
   inkscape:version="1.2 (dc2aeda, 2022-05-15)"
   sodipodi:docname="dark.svg"
   xmlns:inkscape="http://www.inkscape.org/namespaces/inkscape"
   xmlns:sodipodi="http://sodipodi.sourceforge.net/DTD/sodipodi-0.dtd"
   xmlns="http://www.w3.org/2000/svg"
   xmlns:svg="http://www.w3.org/2000/svg"><sodipodi:namedview
     id="namedview7"
     pagecolor="#ffffff"
     bordercolor="#666666"
     borderopacity="1.0"
     inkscape:showpageshadow="2"
     inkscape:pageopacity="0.0"
     inkscape:pagecheckerboard="0"
     inkscape:deskcolor="#d1d1d1"
     inkscape:document-units="mm"
     showgrid="false"
     inkscape:zoom="3.7044225"
     inkscape:cx="154.27506"
     inkscape:cy="65.867217"
     inkscape:window-width="1872"
     inkscape:window-height="1044"
     inkscape:window-x="0"
     inkscape:window-y="25"
     inkscape:window-maximized="0"
     inkscape:current-layer="layer1" /><defs
     id="defs2" /><g
     inkscape:label="Layer 1"
     inkscape:groupmode="layer"
     id="layer1"><g
       id="g1174"
       transform="matrix(1.1398718,0,0,1.1398718,-4.495958,-1.2174804)"><path
         id="path412"
         style="fill:#ff6600;stroke:#000000;stroke-width:0;stroke-linecap:butt;stroke-linejoin:miter;stroke-dasharray:none;stroke-opacity:1"
         d="m 16.035177,5.5522344 -0.727681,2.6933064 -1.961887,-0.6067613 -0.771135,0.8737362 2.556614,0.848752 -0.330764,1.1407113 -3.12994,-0.9950886 -0.771134,0.9465476 4.606703,1.382702 1.344461,-5.3130875 z m 0.06615,7.1690626 -1.345108,5.313802 0.815884,0.970104 0.727682,-2.692592 1.961238,0.606047 0.771785,-0.873022 -2.557264,-0.849467 0.330765,-1.139996 3.12994,0.994373 0.771783,-0.945832 z" /><path
         id="path412-1-4"
         style="fill:#ffcc00;stroke:#000000;stroke-width:0;stroke-linecap:butt;stroke-linejoin:miter;stroke-dasharray:none;stroke-opacity:1"
         d="m 17.346561,7.1533703 -1.256257,5.0710957 4.827215,1.479785 0.88139,-0.898008 -2.446359,-0.80021 0.550625,-2.1593563 -0.793186,-0.8494658 -0.771784,2.8146591 -1.035746,-0.364057 0.90344,-3.4449768 z m -6.789101,3.8333037 -0.8820394,0.898007 2.4470084,0.80021 -0.551275,2.159358 0.793836,0.849465 0.771135,-2.814659 1.036395,0.364057 -0.904089,3.444977 0.859987,0.849465 1.256256,-5.070383 z" /><g
         aria-label="JNS Sample"
         transform="matrix(1.2769997,0,0,1.4653821,-5.5035325,-2.8080234)"
         id="text1091"
         style="font-size:5.86228px;line-height:1.25;stroke-width:0.31405"><path
           d="m 26.089272,8.1847784 v 2.8796156 q 0,0.323456 -0.09732,0.555314 -0.09446,0.228995 -0.25762,0.37498 -0.160296,0.145984 -0.374979,0.214683 -0.214683,0.0687 -0.452266,0.0687 -0.226133,0 -0.437954,-0.07156 -0.21182,-0.0687 -0.374979,-0.206096 -0.16316,-0.14026 -0.263345,-0.346356 -0.09732,-0.208958 -0.09732,-0.48089 V 10.78674 h 0.678399 v 0.383567 q 0,0.137397 0.0458,0.240445 0.0458,0.100185 0.11736,0.168884 0.07156,0.06584 0.160296,0.100185 0.0916,0.03149 0.180334,0.03149 0.07156,0 0.157435,-0.02576 0.08587,-0.02576 0.160296,-0.08587 0.07729,-0.06297 0.12881,-0.166022 0.05152,-0.10591 0.05152,-0.263344 V 8.1847784 Z"
           style="font-weight:bold;font-family:'Gurmukhi Sangam MN';-inkscape-font-specification:'Gurmukhi Sangam MN, Bold';fill:#ffffff"
           id="path1143" /><path
           d="m 27.852536,8.1847784 1.714602,3.0370506 V 8.1847784 h 0.675537 v 3.9931056 h -0.76141 L 27.758075,9.1122094 V 12.177884 H 27.082539 V 8.1847784 Z"
           style="font-weight:bold;font-family:'Gurmukhi Sangam MN';-inkscape-font-specification:'Gurmukhi Sangam MN, Bold';fill:#ffffff"
           id="path1145" /><path
           d="m 31.682483,10.781013 q 0.01431,0.206095 0.08301,0.377842 0.07156,0.168884 0.186059,0.291969 0.114498,0.123085 0.26907,0.191784 0.154571,0.06584 0.34063,0.06584 0.163159,0 0.312006,-0.03435 0.15171,-0.03435 0.266207,-0.111635 0.114498,-0.07729 0.183196,-0.200371 0.0687,-0.125947 0.0687,-0.306281 0,-0.163159 -0.100185,-0.271932 -0.09732,-0.111635 -0.25762,-0.194646 -0.160297,-0.08301 -0.366393,-0.148847 -0.206095,-0.06584 -0.420778,-0.137397 -0.211821,-0.07156 -0.417917,-0.160297 -0.206096,-0.0916 -0.366392,-0.2204077 -0.160297,-0.1316723 -0.260483,-0.3148685 -0.09732,-0.1831963 -0.09732,-0.440816 0,-0.2633446 0.103048,-0.4637155 0.103048,-0.2032333 0.289107,-0.3406305 0.188921,-0.1373972 0.446541,-0.2060958 0.260482,-0.071561 0.569626,-0.071561 0.412191,0 0.684123,0.1202225 0.274794,0.1202225 0.440816,0.3120061 0.166022,0.1889211 0.240445,0.4207789 0.07442,0.2318577 0.08874,0.4551282 H 33.276862 Q 33.259688,9.2009451 33.193852,9.0606855 33.130878,8.9204258 33.02783,8.8288277 32.924782,8.7372296 32.79311,8.694293 32.661438,8.648494 32.512591,8.648494 q -0.134535,0 -0.266207,0.028624 -0.131673,0.025762 -0.234721,0.088736 -0.103048,0.060111 -0.166021,0.1602967 -0.06297,0.097323 -0.06297,0.2404451 0,0.1660216 0.09732,0.2805193 0.100185,0.1116352 0.260482,0.1975084 0.160297,0.083011 0.366393,0.1517094 0.206095,0.065836 0.420779,0.1402596 0.214683,0.071561 0.420778,0.1602965 0.206096,0.08874 0.366393,0.217546 0.160297,0.12881 0.25762,0.309143 0.100185,0.180334 0.100185,0.432229 0,0.306281 -0.114498,0.535277 -0.111635,0.228995 -0.314868,0.380704 -0.200371,0.15171 -0.478028,0.228996 -0.274794,0.07729 -0.603975,0.07729 -0.294831,0 -0.572488,-0.103048 -0.277657,-0.103048 -0.498065,-0.297694 -0.217546,-0.194646 -0.354943,-0.469441 -0.134534,-0.277656 -0.143122,-0.626874 z"
           style="font-weight:bold;font-family:'Gurmukhi Sangam MN';-inkscape-font-specification:'Gurmukhi Sangam MN, Bold';fill:#ffffff"
           id="path1147" /><path
           d="m 36.594432,10.781013 q 0.01431,0.206095 0.08301,0.377842 0.07156,0.168884 0.186059,0.291969 0.114497,0.123085 0.269069,0.191784 0.154572,0.06584 0.340631,0.06584 0.163159,0 0.312006,-0.03435 0.151709,-0.03435 0.266207,-0.111635 0.114498,-0.07729 0.183196,-0.200371 0.0687,-0.125947 0.0687,-0.306281 0,-0.163159 -0.100186,-0.271932 -0.09732,-0.111635 -0.257619,-0.194646 -0.160297,-0.08301 -0.366393,-0.148847 -0.206096,-0.06584 -0.420779,-0.137397 -0.211821,-0.07156 -0.417916,-0.160297 -0.206096,-0.0916 -0.366393,-0.2204077 -0.160296,-0.1316723 -0.260482,-0.3148685 -0.09732,-0.1831963 -0.09732,-0.440816 0,-0.2633446 0.103048,-0.4637155 0.103048,-0.2032333 0.289107,-0.3406305 0.188921,-0.1373972 0.44654,-0.2060958 0.260483,-0.071561 0.569626,-0.071561 0.412192,0 0.684124,0.1202225 0.274794,0.1202225 0.440816,0.3120061 0.166021,0.1889211 0.240445,0.4207789 0.07442,0.2318577 0.08874,0.4551282 H 38.188812 Q 38.171637,9.2009451 38.105801,9.0606855 38.042828,8.9204258 37.93978,8.8288277 37.836732,8.7372296 37.705059,8.694293 37.573387,8.6484939 37.42454,8.6484939 q -0.134535,0 -0.266207,0.028624 -0.131672,0.025762 -0.23472,0.088736 -0.103048,0.060111 -0.166022,0.1602967 -0.06297,0.097323 -0.06297,0.2404451 0,0.1660216 0.09732,0.2805193 0.100185,0.1116352 0.260482,0.1975084 0.160297,0.083011 0.366392,0.1517094 0.206096,0.065836 0.420779,0.1402596 0.214683,0.071561 0.420779,0.1602966 0.206096,0.08874 0.366393,0.217546 0.160296,0.12881 0.257619,0.309143 0.100186,0.180334 0.100186,0.432229 0,0.306281 -0.114498,0.535277 -0.111635,0.228995 -0.314868,0.380704 -0.200371,0.15171 -0.478028,0.228996 -0.274795,0.07729 -0.603975,0.07729 -0.294832,0 -0.572489,-0.103048 -0.277656,-0.103048 -0.498064,-0.297694 -0.217546,-0.194646 -0.354943,-0.469441 -0.134535,-0.277656 -0.143122,-0.626874 z"
           style="font-weight:bold;font-family:'Gurmukhi Sangam MN';-inkscape-font-specification:'Gurmukhi Sangam MN, Bold';fill:#ffffff"
           id="path1149" /><path
           d="m 42.193368,12.100598 q -0.08301,0.05152 -0.145985,0.07729 -0.06297,0.02862 -0.114497,0.04007 -0.04866,0.01431 -0.08587,0.01431 -0.03435,0.0029 -0.06011,0.0029 -0.103048,0 -0.188921,-0.03721 -0.08301,-0.03721 -0.148847,-0.09732 -0.06297,-0.06297 -0.111635,-0.143122 -0.0458,-0.08301 -0.07729,-0.174609 -0.12881,0.134535 -0.243308,0.223271 -0.114497,0.08587 -0.226132,0.137397 -0.111636,0.05152 -0.223271,0.07156 -0.111635,0.02004 -0.231858,0.02004 -0.197508,0 -0.369255,-0.06011 -0.168884,-0.06297 -0.294831,-0.174609 -0.125947,-0.114498 -0.197508,-0.274795 -0.07156,-0.160296 -0.07156,-0.354942 0,-0.168884 0.07442,-0.291969 0.07729,-0.123085 0.200371,-0.214683 0.125947,-0.0916 0.283382,-0.157435 0.160296,-0.06584 0.323455,-0.11736 0.166022,-0.05439 0.323456,-0.103048 0.160297,-0.04866 0.283382,-0.103048 0.125947,-0.05439 0.200371,-0.120222 0.07729,-0.0687 0.07729,-0.163159 0,-0.0916 -0.04866,-0.1517097 -0.0458,-0.062974 -0.120222,-0.1001855 -0.07156,-0.040074 -0.163159,-0.057249 -0.08874,-0.017175 -0.174609,-0.017175 -0.08587,0 -0.171747,0.025762 -0.08587,0.0229 -0.157434,0.074423 -0.0687,0.051524 -0.11736,0.1345352 -0.04866,0.08015 -0.06297,0.191783 h -0.684123 q 0.01717,-0.2518947 0.123085,-0.4379534 0.108772,-0.1889211 0.274794,-0.3120061 0.166022,-0.123085 0.372117,-0.1831963 0.208959,-0.060111 0.423642,-0.060111 0.23472,0 0.446541,0.051524 0.214683,0.051524 0.377842,0.1631592 0.163159,0.1116352 0.260482,0.2862441 0.09732,0.1717465 0.09732,0.4150535 v 1.414046 q 0,0.05725 0.03721,0.105911 0.03721,0.0458 0.10591,0.0458 0.0086,0 0.06297,-0.0057 0.05439,-0.0086 0.143122,-0.05725 z m -1.024754,-1.319585 q -0.06584,0.04007 -0.171747,0.07156 -0.10591,0.03149 -0.228995,0.06584 -0.123085,0.03149 -0.249032,0.0687 -0.123085,0.03721 -0.223271,0.08874 -0.100185,0.04866 -0.166021,0.11736 -0.06297,0.06584 -0.06297,0.157435 0,0.08874 0.02862,0.151709 0.02862,0.06297 0.07442,0.103048 0.04866,0.04007 0.108773,0.06011 0.06011,0.01717 0.120222,0.01717 0.197509,0 0.400742,-0.131673 0.206096,-0.134534 0.369255,-0.403604 z"
           style="font-weight:bold;font-family:'Gurmukhi Sangam MN';-inkscape-font-specification:'Gurmukhi Sangam MN, Bold';fill:#ffffff"
           id="path1151" /><path
           d="m 42.579797,9.2639188 h 0.675536 v 0.3120061 q 0.171746,-0.1975084 0.354942,-0.2833817 0.186059,-0.085873 0.357806,-0.085873 0.103047,0 0.197508,0.020037 0.09446,0.020037 0.183196,0.077286 0.08874,0.054386 0.174609,0.1574343 0.08874,0.1001854 0.174609,0.2633446 0.103048,-0.148847 0.214683,-0.2490324 0.111635,-0.1001855 0.223271,-0.1602968 0.114497,-0.060111 0.226133,-0.083011 0.114497,-0.025762 0.22327,-0.025762 0.220408,0 0.397879,0.080148 0.180334,0.077286 0.306282,0.2146831 0.128809,0.1373972 0.197508,0.3234559 0.0687,0.1860591 0.0687,0.4007421 v 1.952185 h -0.675537 v -1.92356 q 0,-0.14026 -0.03721,-0.231858 -0.03435,-0.091598 -0.0916,-0.1459851 -0.05439,-0.054386 -0.125948,-0.077286 -0.0687,-0.022899 -0.140259,-0.022899 -0.103048,0 -0.203234,0.048661 -0.100185,0.048661 -0.183196,0.1345348 -0.08015,0.085873 -0.131672,0.2032333 -0.04866,0.114498 -0.04866,0.249033 v 1.766126 h -0.675536 v -1.92356 q 0,-0.14026 -0.03721,-0.231858 -0.03435,-0.091598 -0.08873,-0.1459851 -0.05439,-0.054386 -0.120223,-0.077286 -0.06297,-0.022899 -0.123085,-0.022899 -0.12881,0 -0.243307,0.065836 -0.111636,0.062974 -0.194646,0.1602971 -0.08301,0.09732 -0.131673,0.214683 -0.04866,0.114497 -0.04866,0.220408 v 1.740364 h -0.675536 z"
           style="font-weight:bold;font-family:'Gurmukhi Sangam MN';-inkscape-font-specification:'Gurmukhi Sangam MN, Bold';fill:#ffffff"
           id="path1153" /><path
           d="m 47.299963,9.2639188 h 0.675536 v 0.3205934 q 0.06584,-0.1030479 0.148847,-0.1746089 0.08301,-0.074423 0.171747,-0.1173601 0.0916,-0.045799 0.183196,-0.065836 0.09446,-0.020037 0.177471,-0.020037 0.280519,0 0.50379,0.1173601 0.22327,0.1173601 0.377842,0.3205934 0.157434,0.2032333 0.240445,0.4780273 0.08301,0.274795 0.08301,0.589663 0,0.312006 -0.07442,0.589663 -0.07156,0.277657 -0.217545,0.486615 -0.145985,0.206096 -0.36353,0.326318 -0.214683,0.120223 -0.498065,0.120223 -0.100185,0 -0.203233,-0.02862 -0.103048,-0.02576 -0.200371,-0.07729 -0.09446,-0.05439 -0.180334,-0.131673 -0.08587,-0.08015 -0.148847,-0.180334 v 1.445533 h -0.675536 z m 0.675536,1.4884692 q 0.0057,0.188921 0.0458,0.354943 0.04294,0.166022 0.120223,0.291969 0.07729,0.123085 0.186058,0.194646 0.108773,0.07156 0.249033,0.07156 0.145984,0 0.260482,-0.07442 0.114498,-0.07729 0.191784,-0.206096 0.07729,-0.12881 0.11736,-0.300556 0.04007,-0.174609 0.04007,-0.372118 0,-0.197508 -0.04007,-0.369255 -0.04007,-0.174609 -0.11736,-0.303419 -0.07729,-0.1316719 -0.191784,-0.2060954 -0.114498,-0.074423 -0.260482,-0.074423 -0.143122,0 -0.254757,0.074423 -0.111636,0.074423 -0.188922,0.2060954 -0.07729,0.12881 -0.11736,0.303419 -0.04007,0.171747 -0.04007,0.369255 z"
           style="font-weight:bold;font-family:'Gurmukhi Sangam MN';-inkscape-font-specification:'Gurmukhi Sangam MN, Bold';fill:#ffffff"
           id="path1155" /><path
           d="M 51.098424,8.1876409 V 12.177884 H 50.422887 V 8.1876409 Z"
           style="font-weight:bold;font-family:'Gurmukhi Sangam MN';-inkscape-font-specification:'Gurmukhi Sangam MN, Bold';fill:#ffffff"
           id="path1157" /><path
           d="m 52.266298,10.901235 q 0.01718,0.157435 0.07442,0.300557 0.05725,0.140259 0.145985,0.249032 0.08874,0.10591 0.206096,0.168884 0.11736,0.06297 0.251895,0.06297 0.249032,0 0.412191,-0.134535 0.166022,-0.137397 0.263345,-0.409329 h 0.624012 q -0.05725,0.260482 -0.186059,0.463715 -0.125947,0.203234 -0.300556,0.343493 -0.174609,0.14026 -0.38643,0.214683 -0.208958,0.07442 -0.432228,0.07442 -0.314869,0 -0.566764,-0.125947 -0.251895,-0.125948 -0.429366,-0.337769 -0.177471,-0.21182 -0.274794,-0.492339 -0.09446,-0.283382 -0.09446,-0.595388 0,-0.291969 0.09446,-0.558176 0.09732,-0.2690698 0.274794,-0.4723032 0.177471,-0.2060957 0.429366,-0.3263183 0.254758,-0.1202225 0.569626,-0.1202225 0.303419,0 0.549589,0.1087727 0.24617,0.1087728 0.420779,0.3034188 0.174609,0.1917836 0.266207,0.4551285 0.09446,0.260482 0.09446,0.563901 v 0.263344 z m 1.319585,-0.512377 q -0.01717,-0.137397 -0.07156,-0.249032 -0.05152,-0.111635 -0.137397,-0.1917837 -0.08587,-0.083011 -0.203233,-0.1259474 -0.11736,-0.045799 -0.25762,-0.045799 -0.12881,0 -0.240445,0.048661 -0.108773,0.048661 -0.194646,0.1316723 -0.08301,0.08301 -0.14026,0.1946468 -0.05439,0.111635 -0.07442,0.237582 z"
           style="font-weight:bold;font-family:'Gurmukhi Sangam MN';-inkscape-font-specification:'Gurmukhi Sangam MN, Bold';fill:#ffffff"
           id="path1159" /></g></g></g></svg>
