<?xml version="1.0" encoding="UTF-8" standalone="no"?>
<svg
   viewBox="0 0 48 48"
   width="48px"
   height="48px"
   version="1.1"
   id="svg1640"
   sodipodi:docname="facebook_dark.svg"
   inkscape:version="1.2 (dc2aeda, 2022-05-15)"
   xmlns:inkscape="http://www.inkscape.org/namespaces/inkscape"
   xmlns:sodipodi="http://sodipodi.sourceforge.net/DTD/sodipodi-0.dtd"
   xmlns="http://www.w3.org/2000/svg"
   xmlns:svg="http://www.w3.org/2000/svg">
  <defs
     id="defs1644" />
  <sodipodi:namedview
     id="namedview1642"
     pagecolor="#ffffff"
     bordercolor="#666666"
     borderopacity="1.0"
     inkscape:showpageshadow="2"
     inkscape:pageopacity="0.0"
     inkscape:pagecheckerboard="0"
     inkscape:deskcolor="#d1d1d1"
     showgrid="false"
     inkscape:zoom="21.9375"
     inkscape:cx="24.022792"
     inkscape:cy="24.022792"
     inkscape:window-width="1667"
     inkscape:window-height="1100"
     inkscape:window-x="0"
     inkscape:window-y="25"
     inkscape:window-maximized="0"
     inkscape:current-layer="svg1640" />
  <path
     fill="#039be5"
     d="M 24,5 A 19,19 0 1 0 24,43 19,19 0 1 0 24,5 Z"
     id="path1636"
     style="fill:#ffffff" />
  <path
     fill="#fff"
     d="M26.572,29.036h4.917l0.772-4.995h-5.69v-2.73c0-2.075,0.678-3.915,2.619-3.915h3.119v-4.359c-0.548-0.074-1.707-0.236-3.897-0.236c-4.573,0-7.254,2.415-7.254,7.917v3.323h-4.701v4.995h4.701v13.729C22.089,42.905,23.032,43,24,43c0.875,0,1.729-0.08,2.572-0.194V29.036z"
     id="path1638" />
</svg>
