<?xml version="1.0" encoding="UTF-8" standalone="no"?>
<svg
   viewBox="0 0 48 48"
   width="48px"
   height="48px"
   version="1.1"
   id="svg1640"
   sodipodi:docname="facebook_light.svg"
   inkscape:version="1.2 (dc2aeda, 2022-05-15)"
   xmlns:inkscape="http://www.inkscape.org/namespaces/inkscape"
   xmlns:sodipodi="http://sodipodi.sourceforge.net/DTD/sodipodi-0.dtd"
   xmlns="http://www.w3.org/2000/svg"
   xmlns:svg="http://www.w3.org/2000/svg">
  <defs
     id="defs1644" />
  <sodipodi:namedview
     id="namedview1642"
     pagecolor="#ffffff"
     bordercolor="#666666"
     borderopacity="1.0"
     inkscape:showpageshadow="2"
     inkscape:pageopacity="0.0"
     inkscape:pagecheckerboard="0"
     inkscape:deskcolor="#d1d1d1"
     showgrid="false"
     inkscape:zoom="6.4822512"
     inkscape:cx="23.140109"
     inkscape:cy="42.114998"
     inkscape:window-width="1667"
     inkscape:window-height="1100"
     inkscape:window-x="0"
     inkscape:window-y="25"
     inkscape:window-maximized="0"
     inkscape:current-layer="svg1640" />
  <path
     id="path1636"
     style="fill:#ffffff"
     d="M 24 5 A 19 19 0 0 0 21.158203 42.759766 L 21.158203 29.035156 L 16.457031 29.035156 L 16.457031 24.041016 L 21.158203 24.041016 L 21.158203 20.71875 C 21.158203 15.216756 23.839114 12.800781 28.412109 12.800781 C 30.602107 12.800781 31.760594 12.963109 32.308594 13.037109 L 32.308594 17.396484 L 29.189453 17.396484 C 27.248455 17.396484 26.570312 19.235549 26.570312 21.310547 L 26.570312 24.041016 L 32.261719 24.041016 L 31.488281 29.035156 L 26.572266 29.035156 L 26.572266 42.806641 A 19 19 0 0 0 24 5 z M 21.277344 42.779297 A 19 19 0 0 0 22.251953 42.898438 C 21.925365 42.864668 21.600375 42.826467 21.277344 42.779297 z M 26.570312 42.806641 C 26.289048 42.844658 26.00479 42.871658 25.720703 42.900391 A 19 19 0 0 0 26.570312 42.806641 z " />
</svg>
