<?xml version="1.0" encoding="UTF-8" standalone="no"?>
<svg
   viewBox="0 0 24 24"
   width="48px"
   height="48px"
   version="1.1"
   id="svg1823"
   sodipodi:docname="instagram_dark.svg"
   inkscape:version="1.2 (dc2aeda, 2022-05-15)"
   xmlns:inkscape="http://www.inkscape.org/namespaces/inkscape"
   xmlns:sodipodi="http://sodipodi.sourceforge.net/DTD/sodipodi-0.dtd"
   xmlns="http://www.w3.org/2000/svg"
   xmlns:svg="http://www.w3.org/2000/svg">
  <defs
     id="defs1827" />
  <sodipodi:namedview
     id="namedview1825"
     pagecolor="#ffffff"
     bordercolor="#666666"
     borderopacity="1.0"
     inkscape:showpageshadow="2"
     inkscape:pageopacity="0.0"
     inkscape:pagecheckerboard="0"
     inkscape:deskcolor="#d1d1d1"
     showgrid="false"
     inkscape:zoom="21.9375"
     inkscape:cx="24.22792"
     inkscape:cy="27.487179"
     inkscape:window-width="1364"
     inkscape:window-height="900"
     inkscape:window-x="0"
     inkscape:window-y="25"
     inkscape:window-maximized="0"
     inkscape:current-layer="svg1823" />
  <path
     d="M 8,3 C 5.239,3 3,5.239 3,8 v 8 c 0,2.761 2.239,5 5,5 h 8 c 2.761,0 5,-2.239 5,-5 V 8 C 21,5.239 18.761,3 16,3 Z m 10,2 c 0.552,0 1,0.448 1,1 0,0.552 -0.448,1 -1,1 -0.552,0 -1,-0.448 -1,-1 0,-0.552 0.448,-1 1,-1 z m -6,2 c 2.761,0 5,2.239 5,5 0,2.761 -2.239,5 -5,5 C 9.239,17 7,14.761 7,12 7,9.239 9.239,7 12,7 Z m 0,2 a 3,3 0 0 0 -3,3 3,3 0 0 0 3,3 3,3 0 0 0 3,-3 3,3 0 0 0 -3,-3 z"
     id="path1821"
     style="fill:#ffffff" />
</svg>
