<?xml version="1.0" encoding="UTF-8" standalone="no"?>
<svg
   viewBox="0 0 48 48"
   width="48px"
   height="48px"
   version="1.1"
   id="svg1990"
   sodipodi:docname="pinterest_light.svg"
   inkscape:version="1.2 (dc2aeda, 2022-05-15)"
   xmlns:inkscape="http://www.inkscape.org/namespaces/inkscape"
   xmlns:sodipodi="http://sodipodi.sourceforge.net/DTD/sodipodi-0.dtd"
   xmlns="http://www.w3.org/2000/svg"
   xmlns:svg="http://www.w3.org/2000/svg">
  <defs
     id="defs1994" />
  <sodipodi:namedview
     id="namedview1992"
     pagecolor="#ffffff"
     bordercolor="#666666"
     borderopacity="1.0"
     inkscape:showpageshadow="2"
     inkscape:pageopacity="0.0"
     inkscape:pagecheckerboard="0"
     inkscape:deskcolor="#d1d1d1"
     showgrid="false"
     inkscape:zoom="3.5417852"
     inkscape:cx="20.611075"
     inkscape:cy="25.128571"
     inkscape:window-width="727"
     inkscape:window-height="480"
     inkscape:window-x="0"
     inkscape:window-y="25"
     inkscape:window-maximized="0"
     inkscape:current-layer="svg1990" />
  <path
     id="circle1986"
     style="fill:#ffffff"
     d="M 24,4 A 20,20 0 0 0 4,24 20,20 0 0 0 17.115234,42.765625 c -0.134994,-0.0519 -0.26973,-0.103486 -0.404296,-0.15625 -0.173951,-1.581786 -0.331665,-4.000368 0.07031,-5.722656 0.363098,-1.559996 2.345703,-9.941407 2.345703,-9.941407 0,10e-7 -0.597656,-1.198732 -0.597656,-2.96875 0,-2.781552 1.610231,-4.857421 3.617187,-4.857421 1.706908,0 2.53125,1.281007 2.53125,2.816406 0,1.716917 -1.092774,4.281252 -1.658203,6.658203 -0.471496,1.991514 0.999819,3.617188 2.962891,3.617188 3.554623,-10e-7 6.285156,-3.750189 6.285156,-9.160157 0,-4.788447 -3.438481,-8.136719 -8.351562,-8.136719 -5.689997,1e-6 -9.03125,4.268132 -9.03125,8.679688 0,1.718443 0.661316,3.563355 1.488281,4.566406 0.163086,0.198486 0.187134,0.370728 0.138672,0.572266 -0.15155,0.63153 -0.487793,1.989136 -0.554688,2.267578 -0.08691,0.366943 -0.289551,0.443786 -0.667969,0.267578 -2.498471,-1.163024 -4.060546,-4.814212 -4.060546,-7.748047 0,-6.308465 4.582528,-12.103515 13.214843,-12.103515 6.938409,0 12.330078,4.942328 12.330079,11.550781 0,6.893059 -4.347419,12.441406 -10.378907,12.441406 -2.026975,0 -3.930481,-1.05298 -4.582031,-2.296875 0,0 -1.002259,3.81775 -1.246094,4.753906 -0.447948,1.722998 -1.650136,3.876486 -2.466797,5.207032 A 20,20 0 0 0 24,44 20,20 0 0 0 44,24 20,20 0 0 0 24,4 Z" />
</svg>
